<svg width="50" height="50" fill="none" xmlns="http://www.w3.org/2000/svg"><path fill-rule="evenodd" clip-rule="evenodd" d="M24.094 5.21c-.232.14-.364.258-.44.397-.058.11-.186.268-.283.352a1.544 1.544 0 00-.286.358c-.06.112-.228.305-.373.43-.355.307-.414.43-.43.909-.024.67-.18.788-.908.682-.243-.036-.406-.033-.543.008-.227.068-.407.03-.607-.13-.229-.183-.367-.198-.681-.074-.537.212-.689.356-.897.854-.05.12-.163.275-.25.346-.133.11-.21.131-.497.142-.226.008-.355.034-.386.079-.025.036-.045.258-.045.491.001.433-.002.441-.307.93-.064.102-.07.213-.03.574.044.41.038.466-.067.652-.064.112-.114.236-.11.277.01.152.23.214.655.183.494-.035.798.005.896.116.103.12.097.142-.101.393a3.292 3.292 0 00-.32.52 1.843 1.843 0 01-.214.363c-.096.092-.703.215-1.526.31-.183.02-.4.27-.419.48-.026.302-.126.6-.24.717-.198.202-.742.51-.99.56-.346.071-.537.226-.748.606-.396.714-.388.666-.277 1.703l.1.924-.188.248c-.214.282-.327.57-.355.898-.01.124-.066.337-.124.472-.058.136-.1.314-.094.397.01.123.037.154.155.17.481.064.781.305.891.716.08.301.019.464-.231.61-.253.148-.43.17-.65.077-.176-.073-.172-.05-.117-.617a.426.426 0 00-.098-.332c-.152-.202-.34-.23-.627-.097-.124.058-.35.145-.501.192-.404.125-.422.138-.608.45a3.143 3.143 0 01-.36.483c-.205.211-.33.233-.682.119-.21-.068-.531.04-.705.238-.099.113-.11.165-.071.33.146.622.145.592.033.728-.145.175-.394.236-.573.14-.242-.132-.512.018-.943.524-.36.421-.553.444-1.099.133-.33-.188-.53-.188-.911.001l-.266.132-.31-.086c-.331-.09-.5-.064-.741.117-.103.078-.194.087-.72.078-.589-.01-.605-.008-.684.104-.099.14-.097.174.023.479a1.9 1.9 0 01.112.452c.01.117.057.294.106.395.05.101.173.473.274.826.102.353.398 1.148.657 1.766.549 1.308.549 1.308.868 1.774.257.376.28.458.251.872-.014.207.009.316.117.545.108.229.139.372.154.714.01.235.058.7.107 1.035.11.758.084.879-.272 1.25-.368.383-.417.414-.834.532-.65.183-1.12.561-1.475 1.185-.582 1.022-.67 1.194-.71 1.375-.053.235.012.512.143.608.051.039.228.097.39.13.42.085.82.254 1.118.472.14.104.34.245.443.313.145.098.21.195.3.441.12.336.12.393-.01.836-.06.206-.073.408-.048.742.033.45.03.464-.13.683-.145.199-.16.255-.14.516.032.407.106.545.286.532a.506.506 0 00.239-.088c.33-.266.848-.252 1.24.034.385.28.67.207 1-.255.097-.135.29-.32.43-.412.451-.296.56-.47.53-.854-.017-.229.113-.522.278-.625.17-.106.97-.279 1.551-.335.942-.09 1.428-.191 1.645-.34.275-.189.698-.36.934-.378.116-.008.336.038.527.111.305.117.371.123.942.085.337-.022.751-.054.92-.07.51-.051.744-.067 1.257-.086.48-.017.499-.014.831.171.298.166.375.187.626.17.43-.03.633.017.945.224.312.206.47.222.762.077.318-.16.691-.116.926.106.143.135.314.203.64.253.234.036.293.026.523-.082.373-.178.781-.2.957-.051.08.067.14.172.146.255.006.078.101.296.212.484.156.266.231.348.339.366.076.013.429-.022.783-.078.506-.08.7-.092.901-.056.33.06.391.14.334.44-.053.277-.015.373.161.403.23.039.432-.198.488-.575.061-.41.154-.448.521-.213.386.246.678.165 1.023-.283.273-.356.363-.39.548-.208.445.44.585.558.65.553a.857.857 0 00.256-.127c.369-.246.95-.072 1.103.33.144.378.214.462.38.45.132-.01.156-.04.22-.268.04-.142.11-.317.156-.39.119-.189.477-.388.732-.407.18-.013.254-.054.44-.237.313-.309.424-.295.741.095.177.218.265.38.305.558.057.261.402.834.525.871.038.012.2-.003.357-.033.26-.048.308-.078.5-.31.23-.278.64-.598.78-.609.05-.003.167.076.261.177.223.236.375.261.666.108.566-.297 1.462-.444 1.768-.29.223.112.516.365.583.506.03.064.062.198.07.298.011.152.058.217.292.408.283.23.548.349.742.335.156-.012.315-.237.39-.553.065-.273.064-.28-.082-.561a3.801 3.801 0 01-.231-.572 3.062 3.062 0 00-.204-.507c-.166-.304-.13-.588.162-1.314.07-.172.197-.516.282-.766.113-.328.224-.535.397-.742.508-.607.684-.863.77-1.124.106-.328.25-.416.734-.453.257-.02.369-.004.494.07.326.191.383.179.65-.145.317-.386.415-.442.689-.398.118.02.48.044.804.054.585.018.59.018.674-.102.122-.173.095-.286-.119-.486a.924.924 0 01-.24-.362c-.028-.105-.145-.282-.268-.407-.208-.212-.219-.236-.233-.549a4.41 4.41 0 00-.117-.733c-.084-.336-.093-.451-.055-.663.042-.235.036-.27-.069-.413-.142-.193-.368-.66-.377-.782-.004-.05.044-.178.106-.284a.726.726 0 00.103-.34c-.017-.217-.31-.603-.685-.9-.202-.16-.381-.354-.454-.491a1.824 1.824 0 00-.285-.385c-.09-.087-.168-.202-.172-.256-.005-.053.063-.227.15-.385s.174-.404.194-.546c.02-.142.09-.332.156-.422.108-.147.142-.162.356-.157a1.58 1.58 0 00.495-.091c.238-.088.279-.09.498-.027.242.07.412.21.593.485.065.098.19.183.353.24.32.113 1.107.17 1.312.095.271-.099.803-.47.997-.697.104-.122.266-.286.358-.365.093-.08.223-.273.29-.431.124-.294.353-.492.801-.692a.994.994 0 00.255-.163c.097-.1.176-.588.119-.729-.021-.052-.274-.225-.56-.385-.78-.433-.986-.626-1.094-1.022-.038-.14-.027-.223.045-.36a.69.69 0 00.087-.283c-.01-.12-.199-.247-.351-.236a.604.604 0 01-.237-.053 35.85 35.85 0 00-.452-.198 5.17 5.17 0 01-.374-.173 1.091 1.091 0 00-.237-.078c-.187-.043-.365-.013-1.002.171-.296.086-.329.085-.553-.002-.206-.08-.24-.113-.25-.246a.8.8 0 01.059-.317c.135-.312.255-.865.263-1.216.01-.415-.077-.571-.334-.607a3.83 3.83 0 01-.541-.161 4.834 4.834 0 00-.595-.178c-.22-.041-.33-.102-.99-.556-.428-.294-.549-.466-.576-.823-.011-.145-.086-.362-.2-.58-.276-.527-.315-.578-.516-.689-.458-.251-.483-.353-.22-.866.099-.191.175-.404.17-.473-.013-.157-.196-.268-.414-.252-.264.02-.413-.05-.6-.278-.11-.132-.362-.32-.661-.493-.514-.295-.606-.41-.524-.656.245-.73.258-.757.45-.91.149-.117.208-.208.239-.37a.936.936 0 01.16-.359c.115-.14.117-.158.047-.583-.065-.402-.097-.479-.386-.925-.174-.268-.364-.524-.424-.57-.17-.13-.152-.323.062-.63.211-.306.212-.314.142-1.597-.027-.481-.032-.499-.168-.584-.131-.082-.15-.082-.327.006a2.032 2.032 0 01-.206.095c-.085.006-.744-.622-.84-.8a1.026 1.026 0 00-.33-.353 4.042 4.042 0 01-.428-.322c-.164-.142-.276-.196-.434-.208-.122-.009-.357-.095-.548-.2-.36-.2-.552-.217-.737-.068-.139.111-.342.125-.648.045-.357-.094-.604.004-.85.34-.186.256-.192.259-.542.31-.413.06-.584.166-.786.487-.175.28-.327.335-.575.21-.236-.121-.468-.35-.477-.475-.01-.136.137-.862.21-1.03.094-.221.056-.427-.096-.528-.074-.048-.305-.125-.515-.172a8.196 8.196 0 01-.678-.183c-.465-.156-.734-.113-1.264.199-.513.302-.765.35-.952.183-.065-.059-.225-.295-.356-.526-.22-.386-.255-.424-.436-.463-.243-.052-.818.107-1.009.279-.215.193-.377.161-.676-.132-.274-.269-.484-.39-.646-.374-.05.006-.24.1-.423.209z" fill="#828282"/><path fill-rule="evenodd" clip-rule="evenodd" d="M16.226 15.008c.107.3-.143.684-.124.807a.984.984 0 00.168.392c.073.092.156.324.185.514.048.323.026.385-.333.902-.688.992-.913 1.566-.832 2.128.106.745.767 1.307 1.8 1.532.335.073.838.199 1.117.28.566.166.73.134 1.14-.216.191-.165.354-.231.67-.274.393-.054.438-.081.722-.43.66-.808.971-1.136 1.27-1.339a3.61 3.61 0 00.614-.573c.368-.444.604-.524 1.939-.653 1.145-.112 1.548-.06 3.316.419.087.024.588.178 1.114.342l.954.3 1.367 1.012c1.137.843 1.462 1.044 1.927 1.197 1.324.433 2.25.952 3.12 1.748.375.343 1.254 1.008 1.952 1.476.698.47 1.333.94 1.41 1.047.077.106.157.315.179.463.033.234-.014.334-.35.752-.214.266-.38.542-.37.615.052.361-.396.571-.87.408a.866.866 0 00-.554.004c-.41.119-.523.083-.796-.257-.137-.169-.332-.313-.476-.349a.787.787 0 01-.383-.254.627.627 0 00-.637-.278.42.42 0 01-.35-.145 4.745 4.745 0 00-.44-.385c-.152-.119-.284-.26-.292-.313-.007-.054-.137-.24-.288-.414-.15-.174-.282-.379-.293-.455a.42.42 0 00-.15-.235c-.106-.079-.166-.076-.308.013-.143.09-.22.091-.413.013-.183-.075-.269-.074-.376.003-.181.13-.202.372-.082.947.116.55.34.822.698.844.344.02.612.2 1.391.926.383.357.72.646.75.642.03-.004.192.13.36.296.22.22.438.344.783.445.306.09.65.274.96.512.602.461 1.189 1.125 1.114 1.258-.03.053-.128.246-.218.428-.09.183-.222.341-.294.351-.072.01-.38.187-.685.393-.304.206-.391.387-.71.396-.287.01-.39-.114-.676-.28-.285-.167-.56-.297-.613-.29-.102.014-.483-.176-1.085-.542-.207-.126-.417-.223-.467-.216-.198.027-.725-.21-1.182-.53-.362-.256-.554-.34-.789-.344-.351-.006-.551-.144-.923-.634-.39-.515-.39-.515-.813-.404-.206.054-.415.147-.462.205-.128.155.123.47.559.7.193.103.59.388.883.635.656.553.814.644 1.364.788.62.162.935.313 1.517.731.57.41 1.797 1.704 1.797 1.704.435.384.184 1.07-.389.674-.322-.223-.435.045-.652.31-.375.461-.574.54-.861.341a.805.805 0 00-.338-.134c-.086-.004-.403-.128-.704-.275-.302-.147-.572-.264-.601-.26-.13.018-.669-.375-.711-.52a.214.214 0 00-.2-.16c-.508 0-1.292-.165-1.676-.35-.163-.079-.4-.13-.525-.112-.299.041-.552-.093-.78-.412-.102-.142-.239-.271-.304-.286-.125-.028-.865.398-.925.534-.06.134.136.242.597.327.906.166 2.893.653 3.492 1.244.511.504 1.74.643 2.109 1.24.16.258.187.364.156.606-.044.345-.24.265-.24.265s-.425-.05-.574.073a1.224 1.224 0 01-.72.316c-1.44.338-1.936-1.449-1.936-1.449s-.171-.556-.748-1.086c-.546-.503-1.016-.761-1.824-.722-.774.037-.791.032-1.107-.328-.327-.373-1.15-.82-1.698-.924-.575-.107-1.285.014-1.827.313-.248.137-.506.256-.573.266-.169.023-.835-.292-1.379-.652-.522-.345-.832-.462-1.54-.579-.279-.046-1.056-.261-1.726-.48-1.227-.399-1.614-.489-1.597-.373.008.053.336.206 1.615.753.258.11.187.199-.26.323-.306.085-.423.163-.58.387-.2.286-.457.23-.723.427-.54.404-1.152.194-1.709-.587-.204-.286-.525-.905-.918-.607-.207.158-.208.158-.482-.045a1.858 1.858 0 01-.414-.435c-.267-.446-.674.116-.782-.638-.053-.37-.08-.413-.394-.624-.501-.337-1.137-.487-1.214-1.028-.126-.88-.619-.063-.726-.813-.07-.492-.859-.143-1.003-1.153-.067-.468-.095-.53-.288-.641-.143-.083-.288-.286-.44-.615-.393-.847-.396-.905-.125-1.998a9.46 9.46 0 00.228-1.118c.146-.966-.308-1.593.096-2.498.405-.906.97-1.03 1.745-1.476.506-.291.856-.486 1.374-.591.318-.065.352-.094.456-.385a.997.997 0 01.425-.522c.173-.115.34-.213.372-.22 1.402-.608 1.715-2.076 3.26-2.648.273-.101.656.23.782.587zm5.815 6.524c-.662.008-.968-.05-.914-.172.025-.055.143-.084.318-.076.153.007.527.006.831-.003.61-.018.667-.001.623.185-.02.084-.076.116-.167.094-.076-.019-.387-.031-.69-.028zm3.972-.083c-1.058.03-1.878-.074-1.902-.244-.017-.121.072-.13 1.502-.16 1.199-.023 1.531-.004 1.665.095.212.157.091.288-.267.288-.173 0-.622.01-.998.02zm-10.908 2.368c-.684-.151-1.064-.304-1.114-.447-.067-.19.138-.177 1.025.066.36.1 1.618.37 2.674.577l1.45.285c.281.055.984.175 1.563.267.58.091 1.353.22 1.719.287.365.067 1.014.165 1.441.22 1.233.156 1.66.303 1.498.514-.046.06-.183.065-.445.017a60.396 60.396 0 00-2.133-.352l-.817-.117c-.72-.105-5.76-1.033-6.031-1.111-.177-.052-.55-.144-.83-.206zm14.586-1.36c-.552-.507-.654-.658-.555-.816.107-.169.31-.167.815.005.481.164.854.2.814.08a1.422 1.422 0 00-.092-.193c-.054-.094-.03-.126.107-.145.241-.032 1.43.216 1.856.388.944.381 2.364 1.371 3.663 2.553 1.433 1.304 1.664 1.528 1.679 1.632.038.272-.3.091-.916-.488a49.149 49.149 0 00-2.702-2.298c-.672-.526-1.453-.831-1.632-.638-.056.06-.087.216-.069.345.048.335-.2.614-.602.678-.272.043-.323.027-.382-.12-.05-.122-.156-.183-.379-.216-.665-.1-1.115-.314-1.605-.766zm-1.189 2.424c-.491-.051-.646-.097-.682-.202-.043-.127-.01-.138.514-.167.307-.016.802.009 1.099.056.493.078.608.135 1.34.67.758.553.9.737.595.776-.07.009-.424-.177-.788-.413-.74-.48-1.153-.624-2.078-.72zm-1.009 2.363c-.178-.294-.357-.64-.398-.77-.1-.317.053-.332.434-.04.22.167.336.208.455.16.12-.047.209-.014.358.135.109.109.263.189.342.178.275-.038 1.107.375 1.257.623a.843.843 0 01-.232 1.103c-.157.113-.198.104-.54-.118a11.315 11.315 0 00-.862-.49c-.44-.223-.523-.302-.814-.781zm-2.448 2.922c-.08-.112-.129-.24-.108-.288.022-.048.125-.075.242-.063.112.011.36.024.552.028.192.004.457.059.59.123.132.064.383.162.558.219.175.056.45.168.61.249.488.244 1.42.872 1.433.966.034.243-.16.286-1.255.28-1.221-.007-1.638-.1-2.086-.468-.243-.2-.313-.31-.347-.547a1.335 1.335 0 00-.189-.5z" fill="#fff"/><path fill-rule="evenodd" clip-rule="evenodd" d="M24.49 11.644c-.158.227-.248.224-.652-.023-.404-.246-.719-.235-1.175.043-.36.218-1.199.635-1.886.938-1.117.492-1.287.63-1.127.915.059.103-.108.788-.213.873-.032.026-.186.015-.342-.025-.392-.101-.82.21-1.178.53-.357.32-.627.54-.639.992-.01.398.003.706.469.977.09.03.243.134.34.23l.175.176-.127.284c-.264.588-1.019 1.229-1.69 1.434a1.258 1.258 0 00-.485.286c-.15.166-.159.224-.077.463.131.382.504.643.85.595.814-.112 1.124-.123 1.781-.394.825-.34 1.247-.668 1.866-1.3.542-.555 1.213-1.333 1.308-2.11a3.1 3.1 0 00.02-.61c-.05-.35-.006-.688.097-.744.054-.03.275.07.5.224.378.26.435.276.932.249.292-.016.681.007.866.052.316.076.341.073.46-.067.103-.12.113-.266.057-.783-.063-.583-.056-.639.087-.68.113-.031.209.023.351.198.165.203.217.227.326.149.168-.12.31-.569.27-.848-.016-.12.018-.27.076-.333.09-.097.125-.095.234.015.07.071.157.21.192.307.258.72.358.83 1.12 1.22.288.146.383.24.427.422a.468.468 0 00.26.327c.156.072.205.147.213.324.01.223.022.23.335.21.291-.02.362.013.679.317.324.31.826 1.046.857 1.255.015.107.363.37 1.28.97l.708.462.491-.06c.359-.043.586-.026.844.066.432.153 1.076.128 1.46-.057.233-.113.332-.126.567-.078.282.059.287.056.509-.273.317-.47.55-.647.751-.574.045.016.081.026.112.034.088.023.13.034.218.165.01.018.021.035.033.053.091.144.211.333-.048.885l-.255.541.141.99.142.99.376.546c.207.3.5.633.65.739.151.106.363.317.472.47.114.159.327.33.504.402.168.069.483.264.7.434.526.411.657.384.926-.194.117-.252.305-.593.418-.758.113-.164.23-.43.259-.59.034-.184.408-.204.803-.225 1.528-.081 3.357-2.92 1.864-3.997-.077-.055-.13-.094-.14-.12-.358-1.109-.548-.893-1.016-1.368-.203-.205-.39-.154-.55-.494-.696-1.486.336-2.04-1.136-2.645-.794-.326-.683-1.176-1.266-1.639-1.246-.99-3.268.542-4.307.646-.528.052-.976.097-1.168.066a38.572 38.572 0 01-1.38-.259c-.882-.182-1.681-.306-2.923-.453a56.693 56.693 0 01-2.434-.35 2.484 2.484 0 00-.42-.042c-.046.006-.597-.12-1.224-.28-.626-.161-1.199-.284-1.272-.274-.073.01-.184.092-.247.183zm-7.522 6.573c.305-.19.72-.742.654-.873-.022-.044-.165-.074-.318-.065-.245.013-.32.066-.634.453-.539.66-.385.91.298.485zm3.4 14.725a1.628 1.628 0 00-.573-.333c-.514-.148-1.86.12-1.824.365.02.143.85.373 1.182.328.425-.059 1.094-.013 1.225.084.382.282.158 1.954-.351 2.617-.238.31-.314.36-.602.4-.629.087-1.402-.182-1.696-.589-.108-.148-.18-.459-.294-1.26-.104-.721-.182-1.074-.246-1.102-.153-.066-.26.235-.209.592.048.34.012.78-.08.976-.027.06-.158.145-.29.191-.183.064-.248.135-.268.296-.041.333-.134 1.35.441 1.806.495.392.772.319 1.617.202 0 0 .48.04.73-.1.211-.118.416-.453.416-.453.242-.263.55-.512.735-.594.175-.077.393-.246.486-.375.186-.26.335-1.142.229-1.358-.036-.074-.137-.431-.224-.795-.134-.556-.197-.697-.404-.898zm-5.314 1.709c-.145-.666-.348-.914-.898-1.099-.238-.08-.4-.112-.662-.107-.495.009-.994.308-1.184.446-.215.154-.14.428.117.429.251.08.018.561.241.888.434.634 1.53.515 2.023.352.416-.137.49-.325.363-.91zm4.992-.281c.078-.506.025-.548-.757-.596-.768-.047-1.268.02-1.304.174-.015.064.014.237.064.384.05.147.144.522.209.832.134.642.224.724.8.735.259.005.354-.026.457-.147.192-.225.461-.925.531-1.382zm5.689-.31c0-.267-.338-.6-.77-.76-.641-.235-1.676-.098-2.172.288-.313.244-.774 1.324-.869 2.036a6.45 6.45 0 01-.231 1.02c-.128.375-.14.517-.068.757.05.162.13.33.177.375.972.913-.223 1.215 1.44 1.077.174-.009.402-.107.677-.29a6.11 6.11 0 01.7-.406c.401-.18.566-.378.75-.903.142-.406.18-.795.076-.78-.02.002-.154.088-.295.19-.308.22-.447.245-.911.167a32.78 32.78 0 00-.677-.105c-.422-.059-.785-.348-1.013-.808l-.183-.368.157-.376c.086-.207.224-.577.306-.823.225-.667.32-.704 1.011-.393.68.306 1.226.418 1.614.333.227-.05.28-.095.281-.232zm-1.131.674a3.05 3.05 0 01-.653-.212c-.221-.099-.424-.177-.45-.173-.102.014-.128.121-.067.27.037.088.01.369-.061.646-.07.27-.119.545-.109.612.053.372.8.42 1.24.08.219-.17.639-.802.62-.935-.017-.116-.269-.255-.52-.288zm4.92 1.67c-.015-.747-.752-1.644-1.485-1.808a1.462 1.462 0 00-.432-.017c-.168.023-.215.064-.2.173.015.1.192.212.584.37.654.263.825.417.878.786.054.376-.116.706-.352 1.097-.581.96-1.986.364-2.069.717-.069.296.146.562-.028.814-.159.23-.127.294.237.464.198.093.466.322.513.44.12.302.702.268 1.038.222.335-.046.548-.247.816-.813.413-.877.524-1.319.5-2.445zm-1.324.13c.268-.578.217-.688-.401-.864-.593-.168-.633-.17-.697-.031-.113.243-.267.97-.242 1.145.047.334.412.436.873.244.235-.098.331-.2.467-.494z" fill="#fff"/></svg>