<svg width="50" height="50" fill="none" xmlns="http://www.w3.org/2000/svg"><g clip-path="url(#clip0)" fill-rule="evenodd" clip-rule="evenodd"><path d="M24.25 1.137h-.655l-.1.049h-.402l-.098.054-.297.025-.496.018h-.215l.061.298v.203l.054.097v.252l.055.098v.203l.054.097v.202l.054.098v.203l.053.097.01.297.09.353v.203l.055.097v.302l.053.097v.203l.055.098v.252l.054.098.018.197.08.538-.247.062h-.203l-.097.054-.248.014-.254.033-.236.104h-.2c-.372.179-1.107.191-1.5.4-.694.016-2.96 1.105-3.55 1.402-.528.27-1.032.584-1.509.937a59.866 59.866 0 01-1.487 1.013c-.115 0-.624-.787-.72-.93-.229-.345-.452-.647-.67-.98-.15-.228-1.25-1.94-1.358-1.94-.015 0-1.07.811-1.2.9-.276.187-.823.754-1.087 1.013l-.526.524c-.187.187-.274.378-.474.576a5.809 5.809 0 00-.916 1.19c.134.2 1.54 1.144 1.861 1.39.205.154 1.889 1.332 1.889 1.41 0 .196-.874 1.28-1.033 1.517a16.561 16.561 0 00-.95 1.65c-.317.639-1.402 2.986-1.414 3.735l-.088.201-.314 1.348-.011.197-.09.352-.022.199-.03.418-.552-.122h-.203l-.097-.054h-.203l-.098-.055-.193-.006-.754-.187-.248-.01-.352-.09-.198-.009-.551-.135-.246-.02-.993-.179-.061.248v.453l-.054.097v.303l-.055.098v.753l-.054.097v1.903l.054.098v.452l.055.097v.403l.054.097.025.449.028.462.197-.06h.202l.097-.055h.1l.249-.009.553-.141h.352l.097-.054h.203l.097-.055h.253l.097-.054h.202l.099-.054h.202l.097-.055h.252l.098-.054.248-.01.352-.09.198-.023.391-.025.06.348v.353l.054.097.01.298.09.352v.2l.098.25v.2c.139.29.128.724.3 1.05v.15c.128.242.2.634.294.906.1.292.208.579.323.876.24.607.484 1.122.765 1.685.26.525.553 1.034.877 1.523.114.169.99 1.394.99 1.46 0 .042-3.557 2.466-3.9 2.65.432.812 1.294 1.669 1.94 2.313.344.344.708.713 1.078 1.025.16.137 1.095.912 1.239.912.098 0 2.643-3.7 2.75-3.7.023 0 1.525 1.068 1.71 1.186.62.401 1.145.763 1.822 1.128.724.392 3.42 1.509 4.37 1.53l.197.103h.302l.197.127h.1l.199.006.302.094.196.013.422.09-.118.597-.012.197-.139.602v.25l-.145.5v.151l-.013.146-.145.506-.009.248-.14.552-.017.247-.08.539.197.061h.257l.097.054h.253l.097.054h.654l.097.055h2.352l.097-.055h.553l.097-.054h.453l.098-.054.297-.022.413-.03-.06-.198v-.202l-.055-.098-.01-.298-.09-.352-.01-.198-.09-.352v-.247l-.011-.098-.138-.602v-.203l-.055-.097v-.352l-.054-.097-.01-.199-.09-.352v-.1l-.013-.198-.036-.241.299-.06h.252l.098-.054.197-.01.353-.09h.202l.097-.054h.1l.147-.014.503-.136h.253c.215-.117.777-.244 1.077-.324.359-.09.71-.206 1.052-.348.72-.301 1.323-.508 2-.849a17.423 17.423 0 001.779-1.023c.569-.378 1.06-.828 1.689-1.16.316.597.79 1.185 1.185 1.768.204.306.374.589.57.882.194.293.418.556.599.9.464-.108 1.904-1.53 2.288-1.913.616-.617 1.558-1.524 1.962-2.287-.129-.192-.609-.507-.832-.669a22.475 22.475 0 01-.856-.646c-.271-.216-.589-.41-.88-.62a29.11 29.11 0 00-.882-.618c.324-.481.611-.97.94-1.461.327-.492.646-.931.926-1.472a48.51 48.51 0 00.785-1.617c.239-.513.407-1.293.624-1.759l.225-.692v-.1l.014-.096.136-.504v-.253l.055-.097v-.202l.054-.098v-.203l.053-.097v-.202l.055-.098.019-.196.137-.679 1.044.224h.203l.098.055h.202l.097.054.198.013.754.188h.203l.098.054h.202l.097.055.197.01.905.19.148-.601v-.252l.054-.097v-.71l.055-.098v-1.752l-.055-.097v-.703l-.053-.097v-.403l-.055-.097v-.353l-.054-.097v-.2l-.013-.198-.04-.263-.347.06h-.203l-.097.055h-.202l-.099.054h-.15l-.198.007-.301.093h-.203l-.097.054-.297.011-.353.09-.249.006-.302.094h-.352l-.097.054-.197.019-.592.08-.061-.35v-.202l-.054-.097v-.203l-.055-.097v-.2c0-.007-.45-1.934-.45-1.95-.14-.264-.202-.657-.333-.97-.13-.312-.254-.646-.36-.939-.19-.5-.556-1.347-.825-1.776-.339-.539-.608-1.12-.994-1.606-.323-.403-.862-1.077-1.087-1.508.121-.184 1.433-1.019 1.732-1.218.184-.123 1.718-1.174 1.718-1.233 0-.39-1.595-1.968-1.914-2.287-.215-.216-2.17-1.913-2.287-1.913-.032 0-2.44 3.233-2.5 3.448-.182-.015-1.186-.683-1.339-.811a7.006 7.006 0 00-1.328-.821c-.482-.24-.941-.498-1.451-.699-.444-.175-1.212-.422-1.582-.618h-.152c-.3-.159-.943-.3-1.308-.392-.364-.091-1.132-.197-1.387-.32h-.307l-.097-.055h-.303l-.097-.054H27.3c-.256 0-.108-.43-.05-.55l.014-.247.133-.755.108-.199v-.085l.007-.149.192-.754.013-.247.137-.553v-.203l.055-.097v-.202a.87.87 0 00.1-.35c0-.081-.137-.117-.2-.15h-.213l-.097-.054h-.202l-.098-.054h-.203L26.9 1.12h-.502l-.098-.054h-1.953l-.096.071z" fill="#fff"/><path d="M22.5 8.25h-.25a.871.871 0 01-.4.15h-.157l.108.549h.05c0-.261.158-.55.4-.55h.1a.79.79 0 01.45.6 2.77 2.77 0 01-.35.05h-.2v.155l.598-.054v.4c0 .323-.2.354-.4.45h-.209l-.398-.205c.053.195.223.206.4.3h.3c.512-.245.389-.155.647-.647V9c-.264-.57-.126-.45-.69-.75zm3 1.15v-.253l-.054-.097V8.2c0-.151.058-.138.2-.15v-.108l-.549.064-.45 1.3c-.173-.199-.502-1.201-.755-1.201h-.499v.1c.16 0 .249-.016.249.15v.203l.054.098v.252l.054.098v.55c0 .163-.1.187-.25.199v.1h.3c.239 0 .157-.05.35-.05v-.05c-.19 0-.117-.01-.238-.101l-.062-.248V9.2l.014-.707.636 1.257c.227-.06.232-.412.323-.632.092-.22.227-.497.232-.768h.1l-.01.551.06.4v.149c0 .164-.1.188-.25.2v.1l.201.011.647-.061v-.1h-.197l-.106-.2zm2.8.35l.02-.298.03-.352c.255.021.228.153.323.382.066.17.166.323.192.508l.09.107h.1c.182 0 .118.046.35.051v-.1c-.225-.06-.274-.26-.345-.456-.041-.108-.255-.518-.255-.539 0-.02.31-.4.35-.4h.15c.116.056.3.121.3-.1a.192.192 0 00-.2-.2h-.1c-.38.2-.452.646-.755.646-.19 0-.018.015-.15-.05.034-.06.05-.053.05-.15 0-.233.05-.067.05-.3 0-.115.035-.15.15-.15h.15V8.27l-.596-.122-.263.02.208.138.006.092v.352l-.055.097v.2l-.097.25v.2c-.115.238.055.301-.301.301v.039l.197.061.197.011.453.088V9.9c-.16-.003-.249.016-.249-.15zm-.9-.15c-.07 0-.1-.068-.1-.15v-.252l.054-.098v-.801c-.124-.235-.065-.176-.3-.3h-.55c-.142.075-.35.187-.35.4 0 .115.035.15.15.15.115 0 .108-.04.2-.1v-.25c.091-.06.088-.1.2-.1h.1c.162 0 .25.183.25.35v.201c-.283.024-1 .276-1 .55v.3c.118.222.03.133.25.25h.2l.108.005.398-.205c0 .16-.016.25.15.25h.15c.162-.086.245-.097.3-.3-.182.046-.142.1-.21.1zm-.4-.3v.1c-.08.042-.226.15-.3.15h-.1a.284.284 0 01-.25-.25v-.1c0-.274.46-.359.647-.45L27 9.3zm4.85 1.801h.1l.198-.013.252-.036c-.032.133-.05.093-.05.199a.257.257 0 00.15.15l.148-.013.244-.043L33 11.2c-.134.033-.094.05-.2.05-.106 0 .024.02-.118-.057l.468-1.093v-.25c0-.205-.348-.324-.5-.4h-.35c-.108.06-.3.134-.3.3 0 .115.035.15.15.15.286 0 .097-.3.35-.3h.15a.193.193 0 01.2.2v.25l-.047.15h-.647c-.358 0-.477.118-.6.35v.25c.119.234.06.176.294.301zm.05-.5c0-.12.08-.147.15-.244l.45-.056h.2c-.016.187-.216.647-.4.647h-.2a.194.194 0 01-.198-.198l-.002-.15zM19.65 9.5v.202l.054.098v.647c-.18.376-.162.27-.355.552l.205.698h.1l-.01-.152.06-.448c.308-.206.156-.24.607-.394.165-.056.614-.195.743-.256h.3c.439.232.343.323.6.5 0-.193-.185-.8-.35-.8h-.1c-.314 0-.694-1.627-.85-1.95V8.05c0-.08.175-.147.242-.274l-2.003.693.312.031c.303 0 .329.757.445 1zm.596-1.36c.08.17.704 1.988.704 2.11 0 .121-.97.43-1.15.45l.036-.252.014-.198v-.647l-.3-1.202.696-.262zm9.854.76v.045l-.018.145-.532 1.706c-.09.06-.088.1-.2.1h-.2c.081.107.654.296.85.3-.07-.108-.15-.13-.15-.25l.009-.148.14-.502c.128.092.262.176.4.25h.402c.667-.353.418-.363.7-.95V9.35c-.164-.34-.094-.36-.452-.55h-.15l-.107-.008-.364.202.118-.344h-.5c-.09 0-.138.025-.15.1.145.011.204-.002.204.15zm.05 1.1v-.15c.171-.356.093-.611.45-.8h.25c.163 0 .193.142.25.25v.45c-.108.227-.186.7-.55.7-.156 0-.4-.134-.4-.3V10zm4.4 2.457l-.158-.063-.042.06.481.367c.174.137.365.249.57.332h.15c.12 0 .35-.228.35-.35v-.25c-.108-.192-.551-.59-.551-.6 0-.052.332-.45.4-.45.097 0 .163.068.3.1-.085-.127-.578-.51-.754-.55.037.056.15.169.15.2.004.112-.79 1.125-.897 1.204zm1.05.043v.1a.384.384 0 01-.3.3h-.1c-.083-.044-.35-.146-.35-.25 0-.065.365-.494.45-.55.084.126.3.27.3.402V12.5zm-2.118-.632c.143.09.282.216.468.232-.042-.063-.2-.216-.2-.25 0-.156.64-1.25.7-1.25.102 0 .35.162.35.3v.1c0 .191.015.018-.047.145l.101.056.146-.4c-.116-.174-1.054-.671-1.294-.798l-.275.382c.25-.046.147-.135.324-.135h.099c.074 0 .22.107.3.15-.099.187-.646 1.25-.8 1.25a.728.728 0 01-.25-.05c.06.176.205.16.378.268zM14.05 14.55h.35c.18-.086.5-.257.5-.5v-.35c-.108-.203-.047-.296-.257-.348l.107.348-.048.298-.299.202h-.3c-.444-.235-.458-.194-.7-.647v-.2c.06-.113.134-.3.3-.3.184 0 .116.15.3.15a.192.192 0 00.2-.2v-.097l-.198-.107h-.21c-.354.187-.36.191-.55.55v.447c.242.452.348.538.805.754z" fill="#DD2B2B"/><path d="M35.8 13.4c-.162 0-.037-.043-.25-.1.06.228.48.402.659.558l.04-.058c.018-.017-.054-.025-.062-.037-.044-.074-.037.075-.037-.107 0-.122.743-1.15.9-1.15h.05c.191 0 .018-.016.15.05-.044-.168-.525-.504-.7-.55.07.107.15.129.15.25 0 .12-.81 1.144-.9 1.144zm1.25.25c0 .307.39.59.647.647-.036.135-.351.5-.5.5-.149 0-.038-.043-.25-.1.108.165.447.546.647.6-.06-.09-.1-.089-.1-.2 0-.153.878-1 1.05-1h.098l.151.048c-.108-.165-.447-.547-.646-.6.06.09.1.088.1.2 0 .144-.345.43-.45.5-.169-.09-.45-.196-.45-.45 0-.042.385-.45.5-.45.163 0 .038.043.26.088l-.568-.597-.05.05c0 .017.036.013.037.029 0 .037.02.053.02.08v.05c.004.197-.495.486-.495.605zm-24.8 1.75c-.047-.18-.2-.231-.2-.45 0-.141.16-.35.3-.35h.35l.268.107-.31.49.043.059c.07-.047.39-.401.4-.401.068 0 .4.365.4.45l-.015.148-.036.252c-.142.095-.264.25-.5.25h-.15v.1c.527 0 .672-.215.85-.549v-.45c-.248-.517-.258-.49-.754-.755h-.35c-.225.108-.261.054-.438.262-.146.17-.12.368-.312.439.05.17.293.355.454.398zm25.65.2c-.12 0-.147-.081-.276-.13l.526.68c-.032-.134-.05-.095-.05-.2 0-.156.496-.45.5-.45.108 0 .5.548.5.55 0 .096-.494.35-.602.403l-.248-.153c.044.166.4.647.55.7-.035-.06-.05-.053-.05-.15v-.05c0-.166.97-.805 1.152-.903l.248.153c-.04-.15-.373-.653-.55-.7.034.061.05.053.05.15v.05c0 .177-.323.33-.45.4a2.476 2.476 0 01-.4-.5c0-.156.365-.4.5-.4.032 0 .144.113.192.141l.058-.04c-.066-.099-.485-.654-.56-.698l.062.247c-.088.129-1.032.9-1.152.9zm3.202 2.507l-1.152.597h-.25c-.113-.216.014-.092-.15-.151.108.215.277.674.461.797l-.061-.197c.185-.277.872-.526 1.2-.7h.1c.107 0 .107.04.2.1-.027-.329-.278-.484-.3-.755h-.1c.033.134.05.094.05.2l.002.109zm-31.052.443h.1l1.15.55v.3c.114-.083.36-.628.4-.8-.174.063-.15.2-.25.2-.053 0-1.185-.54-1.3-.6.038-.162.216-.6.4-.6h.25v-.09l-.43-.107-.61 1.293c.22-.057.117-.146.29-.146zM41 19.9c-.323-.074-.761-.19-1-.35.017.197.074.408.2.5.034-.416.42-.057.754-.05-.023.09-.38.6-.45.6-.03 0-.107-.07-.15-.1.008.303.174.431.2.755h.1v-.151c0-.197.51-.856.647-.95.144.034.306.08.47.13.278.086.132.154.38.216-.043-.183-.12-.456-.25-.55v.17l-.546-.12c.036-.054.3-.4.35-.4.03 0 .108.07.15.1-.06-.26-.146-.574-.3-.75v.2c-.114.205-.384.634-.554.75zm-31.8.75h.25c.374.179.815.246 1.2.45v.25c.166-.191.233-.514.3-.8-.044.05-.137.2-.2.2-.138 0-.466-.157-.656-.201l.206-.699c.247.04.484.124.7.25v.1l.029.16.271-.81c-.107.069-.13.15-.25.15h-.15c-.373-.18-.814-.246-1.2-.45l-.027-.216-.285.755c.18-.056.086-.078.267-.208l.55.215-.215.713-.539-.175-.108-.09-.03-.215-.26.772c.16-.06.034.064.147-.151zm1 4.95h.05l.029-.499.021-.601h-.1v.25c-.09.06-.088.1-.2.1h-.947c.012-.55 1.3-.875 1.3-1.2v-.55h-.103c-.008.375-.31.522-.56.69-.138.09-.276.15-.402.248s-.185.212-.343.312c-.203-.304-.949-.569-.949-.647 0-.108.036-.213.1-.3v-.1c0-.115-.035-.15-.15-.15H7.9c-.115 0-.15.035-.15.15v.35c.227.43 1.15.539 1.15.95v.2h-.8a.829.829 0 01-.256-.049l-.044-.351h-.1V25.5l.03-.008.12-.292h2c.232.111.35.027.35.4zm33.296 1.344l.054-.098-.018-.209-.132.26h-.2l-.248-.012-.602-.138h-.252L42 26.692l-.197-.013-.453-.086c-.108-.058-.25-.087-.25-.25l-.017-.21-.087.157v.21l-.054.098-.01.247-.09.403h.113c.01-.115.047-.3.15-.3h.253l.097.055h.203l.097.053h.203l.098.055h.193l.25.098h.15l.146.018.515.085-.061.248v.202l-.054.097v.254l-.055.097v.135c0 .256-.62.063-.755 0l-.197-.006-.302-.094h-.253l-.097-.054-.197-.01-.403-.09c-.06-.09-.1-.087-.1-.2V27.7c-.084.059-.1.007-.1.15v.199l-.098.251v.203l-.055.097v.2c.17-.125.075-.3.301-.3h.303l.097.054h.203l.097.054.198.009.552.142h.3l.4.15v.35h.09l.06-.4v-.202l.054-.097v-.2l.098-.25v-.203l.054-.097v-.253l.055-.098v-.202l.054-.097-.003-.215zM41.9 29.6h-.15c-.148-.071-1.633-.539-1.8-.55-.06-.09-.1-.088-.1-.2v-.2l-.072.009-.267.844c.163-.066.138-.203.24-.203.1 0 .533.16.699.2-.12.153-.22.321-.3.5v.2c.36.68.291.484.95.8h.35c.196-.108.5-.253.5-.55v-.101l-.201-.397.3.048v-.6H42c0 .1-.005.2-.098.2zm-.5 1H41c-.398-.192-.462-.05-.7-.5v-.2c.07-.133.141-.3.35-.3h.1c.255.117.524.201.8.25l.09.108.051.193.01.147c0 .168-.188.243-.3.302zm-30.2.548h.1c.12 0 .147.08.25.15-.018-.216-.085-.239-.145-.406-.07-.193-.026-.279-.203-.345l.057.147c-.2.289-1.56.598-1.56.754 0 .123.33.368.432.402l-.042-.266 1.111-.436zm29.85.302H41c-.115 0-.15.035-.15.15v.1c.084.044.35.146.35.25 0 .169-.088.35-.25.35h-.204l-.198-.108v-.8c-.138-.287-.05-.24-.35-.4h-.25c-.142 0-.3.21-.3.35l.013.198.037.252h-.252c-.06.09-.099.088-.099.2v.15c.081.153.041.193.2.25l.013-.28 1.087.48h.2c.216 0 .37-.347.451-.5v-.4c-.055-.1-.085-.242-.248-.242zm-.6.7l-.539-.225c-.071-.065-.108-.063-.108-.175v-.2a.191.191 0 01.2-.2h.15c.162 0 .3.216.3.4l-.003.4zm-28.4.8h.1c.162 0 .037.044.25.1-.108-.195-.254-.647-.4-.755v.301a2.78 2.78 0 01-.647.3v-.15c0-.097.5-.742.5-.8a.77.77 0 00-.25-.45v.2l-.45.7v.2h-.502c-.262 0-.092-.4-.301-.4a.194.194 0 00-.187.122.193.193 0 00-.013.078.382.382 0 00.304.304h.55c.175.092.23.058.25.3-.175.041-.386.2-.5.2-.142 0-.175-.114-.276-.188l.323.788h.1c-.032-.134-.05-.094-.05-.2-.001-.163 1.016-.553 1.2-.65zm.3 2.15c.237-.125.29-.114.487-.313.317-.323.144-.185.313-.539v-.2c-.122-.253-.29-.549-.647-.549h-.15c-.215.108-.166-.033-.3.15h.4c.301.16.216.108.35.4v.1c0 .331-.414.625-.647.755h-.3a.384.384 0 01-.3-.301c0-.198.2-.151.2-.35v-.05c0-.096-.09-.2-.15-.2-.163 0-.194.142-.25.25v.3c.202.383.168.347.55.55h.45l-.006-.003zm1.755.215l.345-.115h.15c.25 0 .198.4.4.4a.192.192 0 00.2-.2v-.049c0-.204-.21-.233-.35-.3h-.35c-.42.202-1.066.27-1.5.5h-.149l-.349.15h-.15c-.191 0-.018.014-.15-.05a.783.783 0 00.36.446l-.076-.168.266-.18.145-.013.754-.236c-.149.282-.323.898-.553 1.061l-.223-.038.526.577v-.25c.064-.132.054-.209.134-.366.063-.128.115-.216.167-.333.07-.151.286-.602.31-.74l.093-.096zm23.94-.465h-.45c-.302.16-.305.2-.45.5v.3c.108.223.035.255.261.397l-.06-.197v-.35c.124-.234.066-.176.3-.3h.35c.236.125.7.361.7.7v.098c-.06.113-.134.3-.3.3-.166 0-.077-.1-.25-.1h-.05c-.097 0-.2.09-.2.15a.194.194 0 00.2.2h.2c.43-.207.336-.195.55-.6v-.3c-.262-.497-.275-.548-.8-.798zm-22.927 3.533c-.008.016-.045-.032-.057-.043-.082-.089-.06.008-.06-.09s.56-.72.661-.838c.07-.082.722-.812.738-.812.109 0 .213.036.3.1-.047-.18-.513-.55-.7-.6.037.056.15.168.15.2 0 .19-.37.514-.5.6-.073-.314-.254-.37-.5-.5h-.35c-.589.282-.539.215-.85.8v.4c.127.24.16.273.4.4h.252l.198-.108c-.054.204-.2.216-.2.3 0 .13.386.179.508.259l.042-.059c.009 0-.028-.018-.032-.01zm-.418-.533h-.1c-.1-.054-.3-.154-.3-.3v-.151c.153-.324-.008-.216.288-.512.107-.108.323-.337.512-.337h.097c.113.059.3.133.3.3v.198c0 .091-.539.801-.7.801l-.097.001z" fill="#DD2B2B"/><path d="M16 38.55l.198.006.302.094h.45c.172 0 .287-.23.35-.35v-.2c-.089-.168-.142-.3-.4-.3h-.35c.033-.134.05-.094.05-.2a.192.192 0 00-.2-.2h-.25c-.09 0-.137.025-.15.1l.25.05c-.063.27-.54.754-.7 1.05v.25c.15.284.27.352.55.5h.1l.148-.01.202-.04c.06-.09.1-.087.1-.2 0-.112-.089-.2-.15-.2-.25 0-.15.3-.4.3-.108 0-.3-.2-.3-.25 0-.125.11-.4.2-.4zm.55-.647h.2a.192.192 0 01.2.2v.15a.284.284 0 01-.25.25h-.35l-.25-.05c.037-.162.282-.553.45-.553v.003zm2.5 1.447c.097 0 .2-.089.2-.15 0-.163-.142-.193-.25-.25h-.2c-.363.192-.647.911-.85 1.301l-.5-.252.646-1.3h.2l.15.048c-.127-.174-.587-.337-.8-.45.072.199.15.081.15.2 0 .273-.512 1.093-.646 1.3h-.1l-.158.006.108.144c.201.017 1.033.484 1.25.6-.056-.216-.1-.087-.1-.25V40.2c.156-.293.373-1.019.754-1.05.018.08.054.198.146.198zm14.34.404l.06.146v.2c-.058.107-.2.35-.35.35a.384.384 0 01-.35-.35V40c.088-.164.049-.196.25-.25v-.107l-.197.06h-.2c-.234-.124-.176-.065-.3-.3v-.15c0-.172.23-.286.35-.35h.1l.409-.016-.158-.084h-.4c-.356.17-.404.079-.6.45v.35c.056.108.087.25.25.25h.452l-.256.348v.1a.384.384 0 00.3.3h.3c.165-.088.491-.337.647-.35-.04-.18-.13-.44-.306-.497zm-4.19.346v-.35c.057-.107.087-.25.25-.25h.2a.192.192 0 00.2-.2.337.337 0 00-.25-.2c-.323 0-.438.415-.55.647v.25l-.055.097v.252l-.054.098v.203l-.053.097v.203l-.091.352-.01.248-.061.248-.15.141.216.01a.293.293 0 01.199-.049c.143 0 .092-.016.15-.1-.14-.012-.2 0-.2-.15v-.2l.054-.097v-.254l.113-.496c.098.125.688.754.688.896v.106c-.215.114-.091-.013-.15.15.166-.039.462-.15.647-.15.142 0 .09-.015.15-.1l-.248-.06c-.132-.196-.995-1.186-.995-1.342zm-7.7-.1h-.15c-.38.182-.356.184-.55.55v.25c.176.332.458.647.95.647.324 0-.044.703-.05 1-.331 0-.95-.156-.95-.45v-.2h-.1c0 .323-.043.307-.1.55.131.065-.041.05.15.05.344 0 1.213.364 1.65.4v-.1c-.149-.013-.25-.037-.25-.2v-.248c.04-.083.448-1.709.45-1.8a.323.323 0 01.2-.1h.2v-.05L21.75 40h-.25zm.55.2l.147.059c0 .302-.197.715-.197.94 0 .358-.754-.067-.754-.299v-.3c.138-.288.049-.24.35-.4h.454zM10.8 16.95c.138 0 1.85 1.132 1.85 1.2a.726.726 0 01-.05.25c.118-.079.458-.594.5-.755-.056.038-.168.151-.2.151-.205 0-.511-.251-.7-.35.182-.247.231-.137.45-.55v-.251c-.275-.573-.23-.547-.8-.85h-.4l-.125-.024-.35.35.025.124v.249l.037.167-.29-.166c-.034.062-.05.054-.05.15a.296.296 0 01-.05.2v.25c.053-.052.09-.145.153-.145zm.35-.5c.06-.108.134-.3.3-.3h.25c.41.197.578.231.8.647v.15c0 .145-.249.35-.4.35-.215 0-.7-.447-.9-.5l-.047-.15v-.1l-.003-.097zM39 17.3c-.114-.215.013-.091-.15-.15.075.323.557 1.25.9 1.25h.1c.14-.067.35-.096.35-.3v-.3l.006-.107-.256-.446c.087-.046.463-.25.55-.25.199 0 .099.127.3.2-.108-.215-.277-.674-.45-.8v.309c-.152.08-1.147.6-1.25.6L39 17.3zm.847-.005l.156.304v.201c0 .163-.143.194-.25.25h-.15c-.187 0-.334-.257-.34-.432l.584-.323zM9.15 22.7c.116 0 .15-.034.15-.15 0-.115-.04-.108-.1-.2H9c-.06-.09-.1-.088-.1-.2v-.1a.285.285 0 01.25-.25h.2c.115 0 .15.034.15.15v.252c.225.468.029.5.55.754h.1a.481.481 0 00.4-.4l-.006-.098-.144-.401c.15-.013.25-.036.25-.2v-.05l.016-.114-.263-.288.059.3-.312-.048h-.199l-.251-.102h-.258l-.098-.053H9.15c-.215 0-.277.247-.35.4v.5c.07.13.146.298.35.298zm1.1-.7c.033.14.1.254.1.4a.339.339 0 01-.25.2h-.15c-.227 0-.345-.454-.35-.7l.65.1zm30.5 12.5c-.184 0-.62-.291-.7-.4h.2c.08-.108.148-.226.2-.35v-.1c0-.442-.595-.738-.9-.9h-.35l-.125-.025-.324.374v.204c-.107-.06-.646-.343-.646-.45a.62.62 0 01.1-.25c-.165.044-.507.614-.55.8.174-.063.149-.2.25-.2.149 0 .63.305.7.4-.149.034-.35.13-.35.3v.3c.323.6.395.507.949.8h.242l.126.026.323-.375v-.257l.935.554.062-.248V34.5c0-.19-.016-.017.05-.15-.191.073-.073.15-.191.15zm-.95.05c0 .096-.09.2-.15.2h-.15c-.374-.18-1.1-.39-1.1-.9 0-.1.208-.2.35-.2 0 0 .862.6 1.05.647v.253zm-.95-1.3v-.055a.284.284 0 01.25-.25h.1c.26.125 1.05.493 1.05.801v.204l-.199.102h-.101c-.095-.002-1.1-.612-1.1-.802zm-1.4 3.6c-.097 0-.2.09-.2.15 0 .198.2.152.2.35 0 .108-.201.3-.25.3-.25 0-.29-.142-.445-.248l.296-.647v-.35c0-.12-.23-.35-.35-.35H36.5c-.234.125-.176.065-.3.3l-.054.36-.146-.06h-.2a.505.505 0 00-.1.3v.25h.1V37c.39.032.81.9 1.1.9.466 0 .603-.344.754-.647v-.1c-.004-.103-.122-.303-.204-.303zm-1.2-.05v-.15c.057-.108.087-.25.25-.25h.1a.284.284 0 01.25.25v.25l-.16.396c-.094-.067-.44-.351-.44-.495zm-.9.55v-.1c0-.108.04-.108.101-.2-.192.045-.603.355-.7.5.134-.032.095-.05.2-.05.156 0 .417.431.501.553l-.351.197a4.441 4.441 0 00-.55-.35h-.4c-.382.203-.348.168-.55.55V39c.3.567.179.426.754.7h.35c.387-.205.395-.216.6-.6v-.398l-.095-.302c.042-.064.243-.25.3-.25.055 0 .35.438.35.5 0 .163-.044.038-.1.25.18-.096.546-.345.646-.5-.134.032-.094.05-.2.05-.09 0-.788-.973-.855-1.1zm-.25 1.8c0 .21-.165.28-.299.35h-.205a1.696 1.696 0 01-.8-.8v-.3a.285.285 0 01.25-.25h.25c.55.263.54.311.8.85l.005.15zm-15.1.2h-.35c-.208.107-.431.2-.487.468l.33-.227.108.008h.15c.306.163.293.205.45.5v.25l-.093.302-1.147-.477-.01.426c0 .363.316.437.55.55h.3c.462-.244.461-.3.7-.754v-.55a1.072 1.072 0 00-.5-.497zM19.75 41h-.2a.384.384 0 01-.3-.3v-.1c0-.096.016-.089.05-.15l.742.27c-.028.114-.132.28-.292.28zm12.05-.5a.116.116 0 00-.1.1v.15l.06.197c-.067.088-.119.203-.26.203h-.1c-.156 0-.3-.276-.3-.4 0-.019.313-.287.363-.337A1.56 1.56 0 0031.75 40v-.25c-.075-.142-.187-.35-.4-.35-.333 0-.423.37-.6.5-.03-.108-.047-.2-.2-.2-.192 0-.31.283-.35.45.198-.073.084-.15.2-.15.215 0 .363 1.3.754 1.3h.35c.296-.156.339-.144.5-.45v-.15a.193.193 0 00-.204-.2zm-.95-.4v-.15c0-.049.192-.25.3-.25h.05a.385.385 0 01.3.3v.1l-.431.517-.219-.517z" fill="#DD2B2B"/><path d="M38.75 23.85v-.502l-.055-.098v-.203l-.054-.097v-.101l-.006-.198-.094-.302v-.2c-.163-.34-.241-1.021-.399-1.4-.18-.432-.334-.85-.518-1.282-.398-.934-.822-1.522-1.343-2.308-.482-.725-1.072-1.316-1.677-1.922a9.17 9.17 0 00-.98-.82c-.158-.114-1.039-.708-1.079-.768h-.1l-.05-.05-.049-.05-.1-.05-.05-.05a14.27 14.27 0 00-1.382-.668c-.242-.095-.474-.21-.737-.314-.295-.118-.506-.122-.781-.268h-.15c-.285-.15-.596-.128-.85-.25l-.198-.006-.302-.094h-.303l-.097-.055h-.253l-.097-.054h-.303l-.097-.054h-1.953l-.097.054h-.553l-.097.054h-.253l-.097.054h-.1l-.199.006-.302.094-.196.013-.653.137c-.113.06-.647.25-.8.25-.155 0-.092.022-.15.1-.256 0-1.106.375-1.25.5-.445.107-2.355 1.257-2.55 1.55a6.577 6.577 0 00-.863.687c-.28.279-.52.522-.8.8a18.9 18.9 0 00-.705.846c-.095.174-.559.835-.682.917v.1l-.05.05-.05.05c-.146.275-.323.54-.467.833-.161.324-.282.59-.43.916-.15.327-.641 1.58-.647 2.002l-.087.202-.113.449-.01.248-.09.352v.358l-.054.097v.253l-.055.097v2.403l.054.098v.302l.054.098v.1l.01.248.09.351v.2c.173.36.195 1.012.4 1.402.008.323.47 1.317.601 1.599.106.252.229.497.368.732.115.192.351.571.426.724.397.814 1.362 1.832 1.992 2.457.803.803 1.534 1.317 2.502 1.949.468.284.959.529 1.467.733.249.092.547.202.794.305.247.102.634.186.857.276l.546.158.448.117.197.01.352.09h.353l.097.054h.253l.097.054h.953l.097.053h.55c.156 0 .432.04.5-.05h.503l.097-.054h.253l.097-.054.298-.01.352-.09h.25c.431-.205 1.501-.307 1.85-.55.91-.215 2.391-1.126 3.1-1.6l.05-.05c.9-.615 1.712-1.352 2.412-2.189.186-.215.329-.423.526-.624.215-.215.242-.431.476-.673.136-.145.787-1.3.837-1.515.373-.43.57-1.524.849-2.047 0-.06.332-1.462.35-1.5v-.254l.054-.097v-.253l.054-.097v-.503l.054-.098v-2.014l-.063-.096zm-7.9 1.45H27.7l-.097.055v.096c0 .182-.044.118-.05.349-.254.48-.365.392-.8.6h-.25c-.115 0-.15.035-.15.15v8.85h-1.8v-8.55c0-.178-.024-.4-.2-.4h-.2c-.203-.097-.7-.346-.7-.6v-.4c0-.115-.034-.15-.15-.15H20.2v-1.9c.254-.161 2.722-.05 3.25-.05v-.55c0-.108.314-.442.4-.5l.097-.055h.203l.35-.057V20.45c-.323-.007-.8-.342-.8-.6v-.2h-1.8v-2c.253 0 .685-.054.85.05h1v-.25c0-.31.084-.323.2-.5h.1l.05-.05h.4l.1-.05v-2.2c.405 0 1.652-.108 1.9.05v2.155h.35c.147 0 .55.448.55.6v.15h1.8v1.95l-.1.05h-1.8v.3c-.128.243-.287.55-.647.55h-.2v1.747h.35c.423 0 .755.275.755.7v.55h3.25l.062 1.15-.02.698z" fill="#E30613"/><path d="M30.8 23.45h-3.25v-.55c0-.425-.323-.7-.755-.7h-.35v-1.75h.2c.364 0 .522-.308.647-.55v-.3H29.1l.1-.05V17.6h-1.8v-.15c0-.153-.403-.6-.55-.6h-.35v-2.156c-.248-.157-1.495-.05-1.9-.05v2.2l-.1.05h-.4l-.05.05h-.1c-.116.174-.2.19-.2.5v.25h-1c-.165-.107-.598-.05-.85-.05v2h1.8v.201c0 .258.476.593.8.6v1.743l-.35.057h-.203l-.097.055c-.086.058-.4.39-.4.5v.55c-.528 0-2.996-.108-3.25.05v1.9h3.1c.116 0 .15.035.15.15v.4c0 .254.497.503.7.6h.2c.176 0 .2.222.2.4v8.55h1.8v-8.85c0-.116.035-.15.15-.15h.25c.431-.208.546-.12.8-.6 0-.231.05-.167.05-.35v-.095l.097-.055h3.15l.012-.701-.059-1.149z" fill="#FFED00"/><path d="M50 24.6c-.088-.074-.05-.345-.05-.5l-.055-.097v-.553l-.053-.098V22.8l-.054-.098V22.2l-.055-.097V21.6l-.054-.097v-.553l-.062-.348-.29.03-.199.018-.097.054h-.203l-.097.055h-.202l-.302.093-.198.006-.098.055h-.203l-.097.054h-.203l-.097.055h-.202l-.098.054h-.203l-.097.054h-.203l-.096.055h-.203l-.098.054h-.252l-.097.055h-.203l-.248.06-.496-2.15c-.086-.202-.19-.611-.263-.872a7.735 7.735 0 00-.312-.838c-.2-.532-.43-1.053-.689-1.56-.24-.496-.512-.975-.817-1.434-.12-.179-.821-1.276-.85-1.4l.3-.201c.279-.147 3.25-2.232 3.25-2.25 0-.18-1.173-1.531-1.363-1.737-.511-.548-.94-1.093-1.474-1.626-.407-.407-1.176-1.186-1.616-1.487-.282-.194-.562-.503-.85-.7a9.137 9.137 0 00-.9-.6c-.124.083-2.465 3.448-2.501 3.6l-.2-.05c-.3-.261-1.177-.755-1.584-.97-.578-.297-1.083-.525-1.682-.818-.621-.303-3.043-1.15-3.834-1.166l-.198-.108-.755-.117.19-.882.008-.199.09-.352.01-.198.09-.352.01-.198.09-.352.01-.198.138-.602.012-.197.23-.994-.431-.035-.398-.022-.151-.048H28l-.098-.053h-.452l-.097-.055h-.403l-.097-.054h-.403l-.097-.055L26.05 0h-2.1l-.3.056-.097.049h-.402l-.099.053h-.401l-.099.054h-.402l-.098.054H21.6l-.097.054c-.108 0-.553-.044-.553.046h-.31l.06.28V.85l.055.098v.203l.054.097v.203l.054.097v.202l.054.097v.2l.098.25v.253l.054.098v.203l.054.097v.202l.054.097v.203l.054.098v.203l.055.097v.202l.054.098v.2c.067.122.102.26.1.4v.25h-.15l-.1.05h-.15c-.451.216-1.616.413-2.194.606-.689.23-1.313.497-1.989.762-1.293.51-2.344 1.361-3.517 1.982a13.29 13.29 0 00-.61-.99c-.198-.296-.41-.701-.628-.97-.14-.175-1.185-1.806-1.212-1.94-.224.02-.746.358-.85.5a1.886 1.886 0 00-.387.313c-.152.154-.255.174-.401.3-.216.183-.507.497-.712.638-.43.295-.993.922-1.388 1.313-.342.307-2.502 2.75-2.502 2.99 0 .129 3.75 2.61 3.75 2.749 0 .052-1.616 2.94-1.8 3.3a14.838 14.838 0 00-.77 1.781c-.107.317-.243.618-.323.926-.067.264-.162.796-.257.993v.2l-.098.25v.35l-.054.098v.152h-.1l-.097-.054h-.253l-.098-.054h-.202l-.097-.055h-.203l-.098-.054h-.252l-.097-.055h-.203l-.098-.054h-.202L3 20.97h-.203l-.097-.055h-.253l-.097-.054h-.203l-.097-.055h-.204l-.097-.053h-.252l-.098-.054h-.203l-.25-.099-.193.05-.403-.065-.028.566-.028.25-.054.096v.553l-.053.097v.702l-.055.097v.403l-.054.097v.553l-.055.097c0 .107.045.553-.046.553v.646c.091 0 .05.355.046.453l.055.098v.704l.054.097v.452l.055.097v.553l.053.097v.702l.054.098v.3l.013.154.046.223.546-.12h.203l.097-.055h.253l.097-.055h.202l.097-.053h.204l.097-.055h.252l.098-.054h.253l.097-.054h.202l.098-.055h.253l.097-.054h.202l.098-.054h.252l.099-.047.25-.057.146-.017.303-.033h.19l.06.399v.199l.098.251v.338c.182.379.204.98.4 1.35.009.385 1.037 2.753 1.238 3.06.142.216 1.49 2.695 1.51 2.78l-.147.06-.05.05-.05.05c-.133.034-3.141 1.81-3.299 1.953-.073.039-.3.116-.3.2s1.142 1.492 1.293 1.662c.479.559.877 1.078 1.401 1.6 1.023 1.025 1.994 1.922 3.213 2.738l.05.05c.107.096.107.135.3.15.049-.186.392-.691.515-.934.086-.16.18-.316.284-.466.124-.18.165-.292.281-.47a9.95 9.95 0 00.564-.936c.154-.323.387-.624.556-.944h.1c.375.251.73.47 1.132.718.402.248.78.516 1.185.715.46.227 2.156 1.156 2.633 1.167.13.175.863.323 1.107.43l.54.175c.264 0 .7.18.957.243.144.034.942.215.942.307a2.968 2.968 0 01-.15.55l-.013.198-.037.252c-.28.53-.331 1.742-.6 2.3l-.022.195-.127.695.4.06h.502l.097.055h.553l.097.055.503-.006.097.055h.503l.097.054h.503l.098.055c.156 0 .323-.035.4.05h1.099c0-.09.308-.05.403-.046l.097-.055h.503l.097-.053h.503l.098-.054h.502l.097-.054h.603l.097-.054h.15l.298-.02.352-.03c-.023-.271-.707-2.925-.8-3.1v-.105l-.01-.097-.24-.903c.233-.108.89-.2 1.22-.28.45-.108.834-.216 1.239-.312.788-.185 1.56-.433 2.308-.74.647-.27 1.495-.647 2.048-1.007.216-.141 1.81-1.111 1.94-1.111.065 0 2.137 3.083 2.35 3.4.286-.154.558-.334.811-.539.126-.098.225-.243.35-.35.125-.107.282-.186.402-.298.511-.477.948-.85 1.449-1.35l1.401-1.402c.318-.317 1.03-1.34 1.288-1.509v-.1c.09-.06.45-.614.45-.647 0-.108-3.4-2.282-3.4-2.399 0-.077.25-.456.3-.55.597-.893.918-1.51 1.416-2.535.21-.43 1.078-2.46 1.083-2.916.245-.461.255-1.242.45-1.649v-.2l.1-.26.448.06.203-.005.098.055h.203l.096.054h.203l.097.055h.253l.097.053h.203l.097.054h.253l.097.055h.203l.098.054h.203l.097.055h.252l.098.054h.203l.096.054.248.017.291.03.062-.197v-.502l.054-.098v-.552l.055-.098v-.552l.054-.098v-.553l.053-.097v-.553l.055-.097c0-.155-.038-.425.05-.5L50 24.6zm-.95.755v.943l-.054.098v.702l-.054.097v.253l-.15.6-.903-.189-.198-.012-.097-.053h-.202l-.098-.054h-.203l-.754-.188-.198-.013-.097-.054h-.202l-.098-.055h-.203l-1.044-.225-.137.68-.018.195-.055.098v.203l-.054.097v.203l-.054.097v.202l-.055.098v.253l-.108.523-.014.097v.1l-.225.692c-.216.465-.385 1.246-.624 1.76a49.852 49.852 0 01-.785 1.616c-.276.539-.602.985-.927 1.473-.324.489-.616.98-.938 1.46.316.216.564.39.881.62.291.209.61.408.88.62.305.237.533.41.856.646.224.16.703.475.832.667-.404.764-1.346 1.672-1.962 2.288-.384.383-1.824 1.804-2.288 1.912-.181-.343-.396-.593-.6-.9-.203-.307-.365-.574-.569-.88-.39-.586-.862-1.173-1.185-1.77-.63.333-1.12.783-1.689 1.162-.572.375-1.166.716-1.778 1.021-.678.342-1.282.549-2 .85a7.66 7.66 0 01-1.053.349c-.303.075-.862.203-1.077.323h-.25l-.507.126-.146.014h-.1l-.098.054h-.202l-.353.09-.197.01-.098.054h-.252l-.299.062.036.241.013.197v.1l.09.353.01.197.054.098v.353l.055.097v.202l.138.603.012.098v.25l.089.352.01.198.09.352.01.298.055.097v.202l.06.197-.413.032-.297.021-.098.055h-.453l-.097.054h-.553l-.097.055h-2.358l-.097-.055h-.657l-.097-.054h-.253l-.098-.055h-.257l-.197-.06.08-.539.017-.247.14-.552.01-.249.136-.503.013-.147v-.159l.146-.501v-.25l.139-.602.012-.197.118-.597-.422-.09-.196-.012-.302-.094-.198-.007h-.085l-.198-.107h-.301l-.199-.103c-.948-.018-3.645-1.139-4.37-1.53-.676-.366-1.201-.727-1.82-1.129-.186-.12-1.688-1.185-1.711-1.185-.108 0-2.652 3.7-2.75 3.7-.144 0-1.078-.776-1.239-.912-.366-.314-.73-.681-1.078-1.026-.646-.647-1.509-1.5-1.94-2.312.347-.184 3.9-2.608 3.9-2.65 0-.066-.877-1.293-.99-1.462a14.114 14.114 0 01-.877-1.521 20.19 20.19 0 01-.765-1.685 22.445 22.445 0 01-.324-.876c-.093-.273-.166-.664-.293-.906v-.15c-.172-.324-.161-.76-.3-1.05v-.2l-.097-.25v-.2l-.091-.352-.01-.298-.054-.098v-.352l-.06-.349-.391.026-.198.023-.352.09-.248.01-.098.054H4.45l-.097.054H4.15l-.098.055H3.85l-.097.054h-.254l-.097.055H3.2l-.097.054H2.75l-.552.14-.248.01h-.1l-.098.055H1.55l-.197.06-.028-.462-.025-.449-.054-.097v-.403l-.055-.097v-.453l-.054-.098v-1.93l.054-.097v-.754l.055-.096V22.6l.054-.097v-.452l.061-.249.993.178.246.02.552.142.198.008.352.09.248.01.754.187.197.013.098.054H5.2l.097.055H5.5l.547.116.03-.419.023-.197.09-.353.01-.197.314-1.355.087-.201c.014-.755 1.098-3.097 1.414-3.736.286-.567.603-1.118.951-1.649.159-.237 1.033-1.321 1.033-1.517 0-.079-1.684-1.256-1.889-1.411-.323-.245-1.724-1.186-1.861-1.39a5.86 5.86 0 01.913-1.185c.2-.2.287-.389.474-.575l.526-.525c.264-.264.81-.827 1.086-1.013.13-.089 1.186-.9 1.201-.9.108 0 1.212 1.713 1.361 1.94.216.328.441.636.67.98.095.142.605.93.72.93.01 0 1.367-.917 1.487-1.013a10.85 10.85 0 011.509-.937c.59-.294 2.856-1.384 3.55-1.401.393-.208 1.128-.221 1.5-.4h.2l.199-.108.254-.034.248-.013.097-.054h.203l.248-.062-.081-.539-.017-.197-.054-.097v-.252l-.055-.098v-.203l-.054-.097v-.303l-.054-.097v-.202l-.071-.346-.01-.298-.054-.098v-.202l-.054-.097V2.55l-.053-.097V2.25l-.045-.095v-.253l-.054-.097v-.203l-.053-.301h.215l.502-.024.298-.026.098-.055h.402l.098-.053h.655l.095-.059h1.948l.098.054h.502l.097.054h.203l.098.055h.202l.097.054h.203c.064.033.2.069.2.15a.874.874 0 01-.1.35v.2l-.055.098v.202l-.137.553-.007.245-.192.754-.008.148v.094l-.107.198-.133.754-.014.248c-.06.122-.207.55.05.55h.35l.097.054h.303l.097.055h.311c.258.123 1.036.215 1.393.307.356.091 1.007.234 1.307.392h.15c.37.196 1.138.443 1.582.619.51.2.97.458 1.452.698.472.224.917.5 1.328.821.148.129 1.156.797 1.338.812.06-.216 2.468-3.449 2.5-3.449.118 0 2.075 1.7 2.288 1.913.323.324 1.913 1.898 1.913 2.287 0 .06-1.534 1.11-1.718 1.233-.299.2-1.61 1.034-1.732 1.217.228.431.766 1.11 1.087 1.509.386.486.655 1.064.994 1.605.27.43.636 1.277.824 1.777.108.287.232.631.361.938.13.306.193.702.333.97 0 .016.448 1.94.45 1.95v.199l.055.098v.202l.054.097v.203l.061.35.592-.08.197-.02.097-.054h.339l.302-.094.25-.006.352-.09.297-.01.097-.054h.203l.302-.094.198-.006h.155l.098-.054h.203l.097-.055h.202l.348-.06.04.262.012.198v.2l.054.097v.352l.055.098v.402l.054.099v.702l.055.097-.02.822z" fill="#E30613"/></g><defs><clipPath id="clip0"><path fill="#fff" d="M0 0h50v50H0z"/></clipPath></defs></svg>